<svg fill="none" height="300" viewBox="0 0 400 300" width="400" xmlns="http://www.w3.org/2000/svg" xmlns:xlink="http://www.w3.org/1999/xlink"><clipPath id="a"><path d="m161 219h24v24h-24z"/></clipPath><path d="m0 0h400v300h-400z" fill="#fff"/><g stroke="#000" stroke-linecap="round" stroke-linejoin="round" stroke-width="2"><path d="m65 79c5.5228 0 10-4.4772 10-10s-4.4772-10-10-10-10 4.4772-10 10 4.4772 10 10 10z"/><path d="m67.31 65 5.74 9.94"/><path d="m62.69 65h11.48"/><path d="m60.38 69.0001 5.74-9.94"/><path d="m62.69 73.0001-5.74-9.94"/><path d="m67.31 73h-11.48"/><path d="m69.62 69-5.74 9.94"/><path d="m128 65v13h-18v-13"/><path d="m130 60h-22v5h22z"/><path d="m117 69h4"/><path d="m173 79c5.523 0 10-4.4772 10-10s-4.477-10-10-10-10 4.4772-10 10 4.477 10 10 10z"/><path d="m169 69 4 4 4-4"/><path d="m173 65v8"/><path d="m232 64-10 10"/><path d="m232 74h-10v-10"/><path d="m276 64 10 10"/><path d="m286 64v10h-10"/><path d="m335 62v14"/><path d="m342 69-7 7-7-7"/><path d="m65 133c5.5228 0 10-4.477 10-10s-4.4772-10-10-10-10 4.477-10 10 4.4772 10 10 10z"/><path d="m69 123-4-4-4 4"/><path d="m65 127v-8"/><path d="m124 128-10-10"/><path d="m114 128v-10h10"/><path d="m168 128 10-10"/><path d="m168 118h10v10"/><path d="m227 130v-14"/><path d="m220 123 7-7 7 7"/><path d="m281 127c2.209 0 4-1.791 4-4s-1.791-4-4-4-4 1.791-4 4 1.791 4 4 4z"/><path d="m285 119v5c0 .796.316 1.559.879 2.121.562.563 1.325.879 2.121.879s1.559-.316 2.121-.879c.563-.562.879-1.325.879-2.121v-1c0-2.257-.764-4.448-2.167-6.215-1.403-1.768-3.362-3.01-5.56-3.523s-4.505-.267-6.546.697c-2.04.965-3.695 2.591-4.694 4.615-.999 2.023-1.284 4.326-.809 6.532s1.683 4.187 3.427 5.62c1.743 1.433 3.92 2.234 6.177 2.273s4.46-.687 6.252-2.059"/><path d="m335 126c3.866 0 7-3.134 7-7s-3.134-7-7-7-7 3.134-7 7 3.134 7 7 7z"/><path d="m331.21 124.89-1.21 9.11 5-3 5 3-1.21-9.12"/><path d="m61.56 167.9c1.0653-.601 2.2695-.913 3.4927-.903 1.2232.009 2.4226.338 3.4787.955 1.0562.618 1.9322 1.501 2.5407 2.562.6086 1.061.9285 2.263.9279 3.486v4m-5.27 8c-.1758.303-.4282.555-.7318.73-.3036.174-.6478.266-.9982.266s-.6946-.092-.9982-.266c-.3036-.175-.556-.427-.7318-.73m6.73-4h-15c.7956 0 1.5587-.316 2.1213-.879.5626-.562.8787-1.325.8787-2.121v-5c-.0014-1.12.2661-2.225.78-3.22z"/><path d="m54 166 22 22"/><path d="m120.73 186c-.176.303-.428.555-.732.73-.303.174-.648.266-.998.266s-.695-.092-.998-.266c-.304-.175-.556-.427-.732-.73m11.73-4h-20c.796 0 1.559-.316 2.121-.879.563-.562.879-1.325.879-2.121v-5c0-1.857.737-3.637 2.05-4.95s3.093-2.05 4.95-2.05 3.637.737 4.95 2.05 2.05 3.093 2.05 4.95v5c0 .796.316 1.559.879 2.121.562.563 1.325.879 2.121.879z"/><path d="m167.5 171.5 11 11-5.5 5.5v-22l5.5 5.5-11 11"/><path d="m221 169h8c1.061 0 2.078.421 2.828 1.172.751.75 1.172 1.767 1.172 2.828s-.421 2.078-1.172 2.828c-.75.751-1.767 1.172-2.828 1.172h-8z"/><path d="m221 177h9c1.061 0 2.078.421 2.828 1.172.751.75 1.172 1.767 1.172 2.828s-.421 2.078-1.172 2.828c-.75.751-1.767 1.172-2.828 1.172h-9z"/><path d="m271 168h6c1.061 0 2.078.421 2.828 1.172.751.75 1.172 1.767 1.172 2.828v14c0-.796-.316-1.559-.879-2.121-.562-.563-1.325-.879-2.121-.879h-7z"/><path d="m291 168h-6c-1.061 0-2.078.421-2.828 1.172-.751.75-1.172 1.767-1.172 2.828v14c0-.796.316-1.559.879-2.121.562-.563 1.325-.879 2.121-.879h7z"/><path d="m327 184.5c0-.663.263-1.299.732-1.768s1.105-.732 1.768-.732h13.5"/><path d="m329.5 167h13.5v20h-13.5c-.663 0-1.299-.263-1.768-.732s-.732-1.105-.732-1.768v-15c0-.663.263-1.299.732-1.768s1.105-.732 1.768-.732z"/><path d="m54 220 22 22"/><path d="m62 222h6l2 3h4c.5304 0 1.0391.211 1.4142.586s.5858.884.5858 1.414v9.34m-7.72-2.06c-.3319.485-.7666.891-1.2732 1.189s-1.0726.481-1.6579.535c-.5852.054-1.1752-.021-1.728-.22-.5528-.2-1.0549-.519-1.4705-.934-.4156-.416-.7345-.918-.934-1.471s-.2748-1.143-.2204-1.728.2371-1.151.535-1.658c.298-.506.704-.941 1.189-1.273m11.28 11.28h-18c-.5304 0-1.0391-.211-1.4142-.586s-.5858-.884-.5858-1.414v-11c0-.53.2107-1.039.5858-1.414s.8838-.586 1.4142-.586h3z"/><path d="m130 238c0 .53-.211 1.039-.586 1.414s-.884.586-1.414.586h-18c-.53 0-1.039-.211-1.414-.586s-.586-.884-.586-1.414v-11c0-.53.211-1.039.586-1.414s.884-.586 1.414-.586h4l2-3h6l2 3h4c.53 0 1.039.211 1.414.586s.586.884.586 1.414z"/><path d="m119 236c2.209 0 4-1.791 4-4s-1.791-4-4-4-4 1.791-4 4 1.791 4 4 4z"/></g><g clip-path="url(#a)"><path d="m163 235.1c.961.196 1.843.67 2.536 1.364.694.693 1.168 1.575 1.364 2.536m-3.9-7.95c2.031.226 3.924 1.136 5.369 2.581s2.355 3.338 2.581 5.369m-7.95-12v-2c0-.53.211-1.039.586-1.414s.884-.586 1.414-.586h16c.53 0 1.039.211 1.414.586s.586.884.586 1.414v12c0 .53-.211 1.039-.586 1.414s-.884.586-1.414.586h-6" stroke="#000" stroke-linecap="round" stroke-linejoin="round" stroke-width="2"/></g><g stroke="#000" stroke-linecap="round" stroke-linejoin="round" stroke-width="2"><path d="m237 230.08v.92c-.001 2.156-.699 4.255-1.991 5.982-1.291 1.727-3.106 2.99-5.174 3.602-2.068.611-4.278.538-6.301-.209-2.022-.748-3.749-2.129-4.923-3.938s-1.731-3.949-1.589-6.101c.142-2.151.975-4.2 2.376-5.839s3.295-2.782 5.398-3.257c2.104-.475 4.304-.258 6.274.62"/><path d="m237 223-10 10.01-3-3"/><path d="m278 230 3 3 10-10"/><path d="m290 231v7c0 .53-.211 1.039-.586 1.414s-.884.586-1.414.586h-14c-.53 0-1.039-.211-1.414-.586s-.586-.884-.586-1.414v-14c0-.53.211-1.039.586-1.414s.884-.586 1.414-.586h11"/><path d="m343 225-11 11-5-5"/></g></svg>